# xmcd CD database file
#
# Track frame offsets:
#	150
#	14351
#	24905
#	39399
#	53389
#	65160
#	77058
#	91119
#	103401
#	118006
#	130632
#	144664
#	163011
#	186684
#	197728
#	211801
#	225099
#	240507
#
# Disc length: 3420 seconds
#
# Revision: 0
# Processed by: cddbd v1.5.1PL0 Copyright (c) Steve Scherf et al.
# Submitted via: CDex 1.51
#
DISCID=ea0d5a12
DTITLE=Sensations Louisiane - Louisiane
DYEAR=2003
DGENRE=Jazz
TTITLE0=Oh when the saints (Go marchin' in) --- Irakli Jazz Band
TTITLE1=Cajun and red beans --- Marc Taynor
TTITLE2=Diggy liggy lo --- Mardi gras
TTITLE3=Dixie road --- Lee Greenwood
TTITLE4=King of the hill --- Marc Taynor
TTITLE5=Missipi boogie --- Alain Mion
TTITLE6=Tip top reel --- Marcel Poincignon and ses Cadiens
TTITLE7=New Orleans is my home --- Alain Mion
TTITLE8=Mais Y'ou toi t'es  ? --- Mardi gras
TTITLE9=Masterson's dance --- Marc Taynor
TTITLE10=Mardi gras dance --- Jack Leroux
TTITLE11=Alleluia, thank you Lord --- The soul system
TTITLE12=Thank you for your presence --- Predicateur Simmons
TTITLE13=Square 99 --- Marc Taynor
TTITLE14=Bayou teche two steps --- Mardi gras
TTITLE15=Snap your fingers --- Joe Henderson
TTITLE16=Betty  and Dupree --- Tia Blake
TTITLE17=Back O'town blues --- Louis Armstrong
EXTD=YEAR: 2003
EXTT0=
EXTT1=
EXTT2=
EXTT3=
EXTT4=
EXTT5=
EXTT6=
EXTT7=
EXTT8=
EXTT9=
EXTT10=
EXTT11=
EXTT12=
EXTT13=
EXTT14=
EXTT15=
EXTT16=
EXTT17=
PLAYORDER=
